<svg width="16" height="16" viewBox="0 0 16 16" fill="none" xmlns="http://www.w3.org/2000/svg">
<path fill-rule="evenodd" clip-rule="evenodd" d="M3.33203 4.66671C3.15522 4.66671 2.98565 4.73695 2.86063 4.86197C2.7356 4.98699 2.66536 5.15656 2.66536 5.33337V12.6667C2.66536 12.8435 2.7356 13.0131 2.86063 13.1381C2.98565 13.2631 3.15522 13.3334 3.33203 13.3334H10.6654C10.8422 13.3334 11.0117 13.2631 11.1368 13.1381C11.2618 13.0131 11.332 12.8435 11.332 12.6667V8.66671C11.332 8.29852 11.6305 8.00004 11.9987 8.00004C12.3669 8.00004 12.6654 8.29852 12.6654 8.66671V12.6667C12.6654 13.1971 12.4546 13.7058 12.0796 14.0809C11.7045 14.456 11.1958 14.6667 10.6654 14.6667H3.33203C2.8016 14.6667 2.29289 14.456 1.91782 14.0809C1.54274 13.7058 1.33203 13.1971 1.33203 12.6667V5.33337C1.33203 4.80294 1.54274 4.29423 1.91782 3.91916C2.29289 3.54409 2.8016 3.33337 3.33203 3.33337H7.33203C7.70022 3.33337 7.9987 3.63185 7.9987 4.00004C7.9987 4.36823 7.70022 4.66671 7.33203 4.66671H3.33203Z" fill="#178FE1"/>
<path fill-rule="evenodd" clip-rule="evenodd" d="M9.33203 2.00004C9.33203 1.63185 9.63051 1.33337 9.9987 1.33337H13.9987C14.3669 1.33337 14.6654 1.63185 14.6654 2.00004V6.00004C14.6654 6.36823 14.3669 6.66671 13.9987 6.66671C13.6305 6.66671 13.332 6.36823 13.332 6.00004V2.66671H9.9987C9.63051 2.66671 9.33203 2.36823 9.33203 2.00004Z" fill="#178FE1"/>
<path fill-rule="evenodd" clip-rule="evenodd" d="M14.4701 1.52864C14.7305 1.78899 14.7305 2.2111 14.4701 2.47145L7.13677 9.80478C6.87642 10.0651 6.45431 10.0651 6.19396 9.80478C5.93361 9.54443 5.93361 9.12232 6.19396 8.86197L13.5273 1.52864C13.7876 1.26829 14.2098 1.26829 14.4701 1.52864Z" fill="#178FE1"/>
</svg>
