<svg width="18" height="18" viewBox="0 0 18 18" fill="none" xmlns="http://www.w3.org/2000/svg">
<path fill-rule="evenodd" clip-rule="evenodd" d="M17.3332 8.99996C17.3332 13.6023 13.6022 17.3333 8.99984 17.3333C4.39746 17.3333 0.666504 13.6023 0.666504 8.99996C0.666504 4.39759 4.39746 0.666626 8.99984 0.666626C13.6022 0.666626 17.3332 4.39759 17.3332 8.99996ZM8.1665 3.16663C8.1665 2.70639 8.5396 2.33329 8.99984 2.33329C9.46008 2.33329 9.83317 2.70639 9.83317 3.16663V4.83329C9.83317 5.29353 9.46008 5.66663 8.99984 5.66663C8.5396 5.66663 8.1665 5.29353 8.1665 4.83329V3.16663ZM8.99984 12.3333C8.5396 12.3333 8.1665 12.7064 8.1665 13.1666V14.8333C8.1665 15.2935 8.5396 15.6666 8.99984 15.6666C9.46008 15.6666 9.83317 15.2935 9.83317 14.8333V13.1666C9.83317 12.7064 9.46008 12.3333 8.99984 12.3333ZM14.8332 8.16663C15.2934 8.16663 15.6665 8.53972 15.6665 8.99996C15.6665 9.4602 15.2934 9.83329 14.8332 9.83329H13.1665C12.7063 9.83329 12.3332 9.4602 12.3332 8.99996C12.3332 8.53972 12.7063 8.16663 13.1665 8.16663H14.8332ZM5.6665 8.99996C5.6665 8.53972 5.29341 8.16663 4.83317 8.16663H3.1665C2.70627 8.16663 2.33317 8.53972 2.33317 8.99996C2.33317 9.4602 2.70627 9.83329 3.1665 9.83329H4.83317C5.29341 9.83329 5.6665 9.4602 5.6665 8.99996ZM12.5353 4.28587C12.8608 3.96043 13.3884 3.96043 13.7139 4.28587C14.0393 4.61131 14.0393 5.13894 13.7139 5.46438L12.5353 6.64289C12.2099 6.96833 11.6823 6.96833 11.3568 6.64289C11.0314 6.31746 11.0314 5.78982 11.3568 5.46438L12.5353 4.28587ZM6.64282 11.357C6.31739 11.0316 5.78975 11.0316 5.46431 11.357L4.2858 12.5355C3.96036 12.8609 3.96036 13.3886 4.2858 13.714C4.61124 14.0395 5.13888 14.0395 5.46431 13.714L6.64282 12.5355C6.96826 12.2101 6.96826 11.6824 6.64282 11.357ZM13.7139 12.5355C14.0394 12.8609 14.0394 13.3885 13.7139 13.714C13.3885 14.0394 12.8609 14.0394 12.5354 13.714L11.3569 12.5355C11.0315 12.21 11.0315 11.6824 11.3569 11.3569C11.6823 11.0315 12.21 11.0315 12.5354 11.3569L13.7139 12.5355ZM6.6428 6.64284C6.96824 6.31741 6.96824 5.78977 6.6428 5.46433L5.46429 4.28582C5.13885 3.96039 4.61121 3.96039 4.28578 4.28582C3.96034 4.61126 3.96034 5.1389 4.28578 5.46433L5.46429 6.64284C5.78973 6.96828 6.31736 6.96828 6.6428 6.64284Z" fill="#F2B02B"/>
</svg>
