<svg width="16" height="16" viewBox="0 0 16 16" fill="none" xmlns="http://www.w3.org/2000/svg">
<path fill-rule="evenodd" clip-rule="evenodd" d="M1.33464 1.99988C1.70283 1.99988 2.0013 2.29835 2.0013 2.66654V11.9999C2.0013 12.3681 2.29978 12.6665 2.66797 12.6665H14.668C15.0362 12.6665 15.3346 12.965 15.3346 13.3332C15.3346 13.7014 15.0362 13.9999 14.668 13.9999H2.66797C1.5634 13.9999 0.667969 13.1044 0.667969 11.9999V2.66654C0.667969 2.29835 0.966446 1.99988 1.33464 1.99988Z" fill="#178FE1"/>
<path d="M11.9987 3.33325C11.6305 3.33325 11.332 3.63173 11.332 3.99992V10.6666C11.332 11.0348 11.6305 11.3333 11.9987 11.3333C12.3669 11.3333 12.6654 11.0348 12.6654 10.6666V3.99992C12.6654 3.63173 12.3669 3.33325 11.9987 3.33325Z" fill="#178FE1"/>
<path d="M6.66536 4.66659C6.29717 4.66659 5.9987 4.96506 5.9987 5.33325V10.6666C5.9987 11.0348 6.29717 11.3333 6.66536 11.3333C7.03355 11.3333 7.33203 11.0348 7.33203 10.6666V5.33325C7.33203 4.96506 7.03355 4.66659 6.66536 4.66659Z" fill="#178FE1"/>
<path d="M3.9987 8.66659C3.63051 8.66659 3.33203 8.96506 3.33203 9.33325V10.6666C3.33203 11.0348 3.63051 11.3333 3.9987 11.3333C4.36689 11.3333 4.66536 11.0348 4.66536 10.6666V9.33325C4.66536 8.96506 4.36689 8.66659 3.9987 8.66659Z" fill="#178FE1"/>
<path d="M8.66536 6.66659C8.66536 6.2984 8.96384 5.99992 9.33203 5.99992C9.70022 5.99992 9.9987 6.2984 9.9987 6.66659V10.6666C9.9987 11.0348 9.70022 11.3333 9.33203 11.3333C8.96384 11.3333 8.66536 11.0348 8.66536 10.6666V6.66659Z" fill="#178FE1"/>
</svg>
